<?xml version="1.0" encoding="utf-8"?>
<!-- Generator: Adobe Illustrator 25.1.0, SVG Export Plug-In . SVG Version: 6.00 Build 0)  -->
<svg version="1.1" id="a5b39606-6275-4e50-bae6-002d29ca6512"
	 xmlns="http://www.w3.org/2000/svg" xmlns:xlink="http://www.w3.org/1999/xlink" x="0px" y="0px" viewBox="0 0 768 728.9"
	 style="enable-background:new 0 0 768 728.9;" xml:space="preserve">
<style type="text/css">
	.st0{opacity:0.4;fill:#B1A296;}
	.st1{fill:#E6E6E6;}
	.st2{fill:#FFFFFF;}
	.st3{fill:#3F3D56;}
	.st4{fill:#B1A296;}
	.st5{fill:#CCCCCC;}
	.st6{fill:#FFB8B8;}
	.st7{fill:#2F2E41;}
	.st8{fill:none;}
	.st9{fill:#000015;}
	.st10{font-family:'Arial-BoldMT';}
	.st11{font-size:18px;}
	.st12{fill:#007194;}
</style>
<path class="st0" d="M584.3,268.8l-29.7-35.5c-0.2,0-0.4,0-0.6,0h-0.5c-0.6,0.1-1.2,0.1-1.8,0.1c-0.5,0-0.9-0.1-1.3-0.2
	c-0.4,0.1-0.9,0.2-1.4,0.2c-0.6,0-1.1-0.1-1.5-0.2c-0.3,0.1-0.7,0.1-1.1,0.1c-0.3,0-0.5,0-0.8-0.1c-0.5,0.2-1,0.3-1.5,0.3
	c-0.5,0.2-1.1,0.3-1.6,0.2c-1.7-0.2-3.5-0.2-5.3-0.2c-0.3,0-0.6,0-0.9-0.1c0.3,0.8,0.7,1.5,1.4,2l45.6,34.5
	C583.9,270.5,584.9,269.5,584.3,268.8z"/>
<path class="st1" d="M466.9,172.9h-4V63.4c0-35-28.4-63.4-63.4-63.4H167.4c-35,0-63.4,28.4-63.4,63.4c0,0,0,0,0,0v601
	c0,35,28.4,63.4,63.4,63.4c0,0,0,0,0,0h232.1c35,0,63.4-28.4,63.4-63.4V250.9h4L466.9,172.9z"/>
<path class="st2" d="M402,16.5h-30.3c4.7,11.5-0.8,24.6-12.3,29.3c-2.7,1.1-5.6,1.7-8.5,1.7H218c-12.4,0-22.5-10.1-22.5-22.5
	c0-2.9,0.6-5.8,1.7-8.5h-28.3c-26.1,0-47.3,21.2-47.3,47.3v600.1c0,26.1,21.2,47.3,47.3,47.3c0,0,0,0,0,0H402
	c26.1,0,47.3-21.2,47.3-47.3l0,0l0,0V63.8C449.4,37.7,428.2,16.5,402,16.5C402,16.5,402,16.5,402,16.5z"/>
<path class="st3" d="M767,728.9H1c-0.6,0-1-0.4-1-1s0.4-1,1-1h766c0.6,0,1,0.4,1,1S767.6,728.9,767,728.9z"/>
<path class="st3" d="M426.8,182.5H143.9c-2.9,0-5.2-2.3-5.2-5.2v-70.2c0-2.9,2.3-5.2,5.2-5.2h282.9c2.9,0,5.2,2.3,5.2,5.2v70.2
	C432.1,180.2,429.7,182.5,426.8,182.5z M143.9,104c-1.7,0-3.1,1.4-3.1,3.1v70.2c0,1.7,1.4,3.1,3.1,3.1h282.9c1.7,0,3.1-1.4,3.1-3.1
	v-70.2c0-1.7-1.4-3.1-3.1-3.1L143.9,104z"/>
<path class="st3" d="M426.8,460.1H143.9c-2.9,0-5.2-2.3-5.2-5.2V325c0-2.9,2.3-5.2,5.2-5.2h282.9c2.9,0,5.2,2.3,5.2,5.2v129.9
	C432.1,457.8,429.7,460.1,426.8,460.1z M143.9,321.9c-1.7,0-3.1,1.4-3.1,3.1v129.9c0,1.7,1.4,3.1,3.1,3.1h282.9
	c1.7,0,3.1-1.4,3.1-3.1V325c0-1.7-1.4-3.1-3.1-3.1H143.9z"/>
<path class="st1" d="M424.7,291.5H299c-2.9,0-5.2-2.3-5.2-5.2v-70.2c0-2.9,2.3-5.2,5.2-5.2h125.7c2.9,0,5.2,2.3,5.2,5.2v70.2
	C430,289.1,427.6,291.5,424.7,291.5z M299,212.9c-1.7,0-3.1,1.4-3.1,3.1v70.2c0,1.7,1.4,3.1,3.1,3.1h125.7c1.7,0,3.1-1.4,3.1-3.1
	v-70.2c0-1.7-1.4-3.1-3.1-3.1L299,212.9z"/>
<path class="st1" d="M269.7,629.9H143.9c-2.9,0-5.2-2.3-5.2-5.2V493.7c0-2.9,2.3-5.2,5.2-5.2h125.7c2.9,0,5.2,2.3,5.2,5.2v130.9
	C274.9,627.5,272.6,629.9,269.7,629.9z M143.9,490.5c-1.7,0-3.1,1.4-3.1,3.1v130.9c0,1.7,1.4,3.1,3.1,3.1h125.7
	c1.7,0,3.1-1.4,3.1-3.1V493.7c0-1.7-1.4-3.1-3.1-3.1H143.9z"/>
<path class="st1" d="M424.7,629.9H299c-2.9,0-5.2-2.3-5.2-5.2V493.7c0-2.9,2.3-5.2,5.2-5.2h125.7c2.9,0,5.2,2.3,5.2,5.2v130.9
	C430,627.5,427.6,629.9,424.7,629.9z M299,490.5c-1.7,0-3.1,1.4-3.1,3.1v130.9c0,1.7,1.4,3.1,3.1,3.1h125.7c1.7,0,3.1-1.4,3.1-3.1
	V493.7c0-1.7-1.4-3.1-3.1-3.1H299z"/>
<circle class="st4" cx="185.8" cy="365.8" r="21.3"/>
<path class="st4" d="M235.1,351.6c-2,0-3.6,1.6-3.6,3.6c0,2,1.6,3.6,3.6,3.6h167.7c2,0,3.6-1.6,3.5-3.6c0-2-1.6-3.5-3.5-3.5H235.1z"
	/>
<path class="st4" d="M235.1,372.9c-2,0-3.6,1.6-3.6,3.5c0,2,1.6,3.6,3.5,3.6h72.2c2,0,3.6-1.6,3.6-3.6s-1.6-3.6-3.6-3.6H235.1z"/>
<path class="st5" d="M169.4,407c-2.7,0-4.9,1.6-4.9,3.6c0,2,2.2,3.6,4.9,3.6h231.3c2.7,0,4.9-1.6,4.9-3.6c0-2-2.2-3.6-4.9-3.6H169.4
	z"/>
<path class="st5" d="M169.4,428.4c-2.7,0-4.9,1.6-4.9,3.6s2.2,3.6,4.9,3.6h231.3c2.7,0,4.9-1.6,4.9-3.6s-2.2-3.6-4.9-3.6H169.4z"/>
<circle class="st4" cx="187.9" cy="139.5" r="21.3"/>
<path class="st4" d="M237.2,125.3c-2,0-3.6,1.6-3.5,3.6c0,2,1.6,3.5,3.5,3.5h167.7c2,0,3.6-1.6,3.6-3.5c0-2-1.6-3.6-3.5-3.6
	c0,0,0,0,0,0c0,0,0,0,0,0H237.2z"/>
<path class="st4" d="M237.2,146.6c-2,0-3.6,1.6-3.5,3.6c0,2,1.6,3.5,3.5,3.5h72.1c2,0,3.6-1.6,3.6-3.5s-1.6-3.6-3.5-3.6c0,0,0,0,0,0
	H237.2z"/>
<path class="st1" d="M269.6,291.5H151.6l27.8-48.1c1.6-2.7,5-3.6,7.7-2.1c0.9,0.5,1.6,1.2,2.1,2.1l11.9,20.5l20.2-34.9
	c2-3.4,6.3-4.6,9.7-2.6c1.1,0.6,2,1.5,2.6,2.6L269.6,291.5z M155.2,289.4h110.7l-34.2-59.3c-1.4-2.4-4.4-3.2-6.8-1.8
	c-0.8,0.4-1.4,1.1-1.8,1.8l-22,38.1l-13.7-23.7c-1-1.7-3.2-2.3-4.9-1.3c-0.5,0.3-1,0.8-1.3,1.3L155.2,289.4z"/>
<path class="st1" d="M420.4,291.5H302.5l27.8-48.1c1.6-2.7,5-3.6,7.7-2.1c0.9,0.5,1.6,1.2,2.1,2.1l11.9,20.5l20.2-34.9
	c2-3.4,6.3-4.6,9.7-2.6c1.1,0.6,2,1.5,2.6,2.6L420.4,291.5z M306.1,289.4h110.7l-34.2-59.3c-1.4-2.4-4.4-3.2-6.8-1.8
	c-0.8,0.4-1.4,1.1-1.8,1.8l-22,38.1l-13.7-23.7c-1-1.7-3.2-2.3-4.9-1.3c-0.5,0.3-1,0.8-1.3,1.3L306.1,289.4z"/>
<path class="st1" d="M269.7,291.5H143.9c-2.9,0-5.2-2.3-5.2-5.2v-70.2c0-2.9,2.3-5.2,5.2-5.2h125.7c2.9,0,5.2,2.3,5.2,5.2v70.2
	C274.9,289.1,272.6,291.5,269.7,291.5z M143.9,212.9c-1.7,0-3.1,1.4-3.1,3.1v70.2c0,1.7,1.4,3.1,3.1,3.1h125.7
	c1.7,0,3.1-1.4,3.1-3.1v-70.2c0-1.7-1.4-3.1-3.1-3.1L143.9,212.9z"/>
<path class="st1" d="M170.7,515.5c-2,0-3.6,1.6-3.6,3.6c0,2,1.6,3.6,3.6,3.6c0,0,0,0,0,0h72.1c2,0,3.6-1.6,3.6-3.6
	c0-2-1.6-3.6-3.6-3.6l0,0H170.7z"/>
<path class="st1" d="M170.7,536.4c-2,0-3.6,1.6-3.6,3.6c0,2,1.6,3.6,3.6,3.6c0,0,0,0,0,0h72.1c2,0,3.6-1.6,3.6-3.6
	c0-2-1.6-3.5-3.6-3.6H170.7z"/>
<path class="st1" d="M206.8,602.9c-12.4,0-22.4-10-22.4-22.4s10-22.4,22.4-22.4c12.4,0,22.4,10,22.4,22.4v0l0,0
	C229.2,592.8,219.2,602.8,206.8,602.9z M206.8,560.2c-11.2,0-20.3,9.1-20.3,20.3c0,11.2,9.1,20.3,20.3,20.3s20.3-9.1,20.3-20.3
	c0,0,0,0,0,0l0,0C227.1,569.3,218,560.2,206.8,560.2L206.8,560.2z"/>
<path class="st1" d="M397.9,602.9c2,0,3.6-1.6,3.6-3.6c0-2-1.6-3.6-3.6-3.6c0,0,0,0,0,0h-72.1c-2,0-3.6,1.6-3.6,3.6
	c0,2,1.6,3.6,3.6,3.6H397.9z"/>
<path class="st1" d="M397.9,581.9c2,0,3.6-1.6,3.6-3.6c0-2-1.6-3.6-3.6-3.6c0,0,0,0,0,0h-72.1c-2,0-3.6,1.6-3.6,3.6
	c0,2,1.6,3.6,3.6,3.6H397.9z"/>
<path class="st1" d="M361.9,515.5c12.4,0,22.4,10,22.4,22.4c0,12.4-10,22.4-22.4,22.4c-12.4,0-22.4-10-22.4-22.4v0v0
	C339.5,525.5,349.5,515.5,361.9,515.5z M361.9,558.1c11.2,0,20.3-9.1,20.3-20.3s-9.1-20.3-20.3-20.3s-20.3,9.1-20.3,20.3l0,0v0
	C341.6,549,350.7,558.1,361.9,558.1L361.9,558.1z"/>
<polygon class="st6" points="590,713.7 573.8,713.7 566.1,651.3 590,651.3 "/>
<path class="st7" d="M557.5,709.1h36l0,0v19.7l0,0h-50.9l0,0V724C542.6,715.8,549.2,709.1,557.5,709.1z"/>
<polygon class="st6" points="654.7,713.7 638.5,713.7 630.8,651.3 654.7,651.3 "/>
<path class="st7" d="M622.2,709.1h36l0,0v19.7l0,0h-50.9l0,0V724C607.3,715.8,613.9,709.1,622.2,709.1z"/>
<path class="st6" d="M561.8,533.7c5-4.7,5.2-12.5,0.6-17.5c-0.5-0.5-1-1-1.6-1.5l6.9-27.4l-15.6-8.3l-9.2,38.9
	c-3.7,5.8-2.1,13.5,3.7,17.2C551.3,538.3,557.6,537.7,561.8,533.7L561.8,533.7z"/>
<polygon class="st7" points="660.4,485.8 659.1,578.3 657.8,699.7 628.8,697.1 614.2,529.4 595.7,697.1 565.8,697.1 562.7,528.1 
	573.3,491.1 "/>
<path class="st3" d="M570.4,491.7l-0.4-0.2l16.6-113.2l-8.4-34.2c-0.9-3.7,1.1-7.5,4.6-8.8l15.1-5.7l5.3-14.7l42.2,4.5l1,11.5
	c4.6,1.5,42.2,14,39.6,28.3c-2.6,14.1-17.7,58.5-18.5,60.7l-2.7,63.6l-0.3,0.2c-0.4,0.2-29.5,14.5-61.1,14.5
	C592.5,498.2,581,496.5,570.4,491.7z"/>
<path class="st3" d="M542.2,503.6l13.3-85.2c0.1-0.5,8-50.4,10.6-66c2.7-16.2,15.2-16.4,15.3-16.4h6.9l8.1,36.3l-15.9,72.8
	l-14.6,60.3L542.2,503.6z"/>
<path class="st6" d="M628.5,495.2c0.3-6.8,6.1-12.1,13-11.8c0.7,0,1.5,0.1,2.2,0.3l16.4-23.1l16.4,6.5l-23.6,32.3
	c-2,6.6-8.9,10.3-15.5,8.4C631.9,506.1,628.2,500.9,628.5,495.2L628.5,495.2z"/>
<path class="st3" d="M646.5,475.3l29.1-49l-11.9-31.6l16.2-43.1l0.6,0.3c0.4,0.2,9.6,4.3,10.9,18.9l18.6,58.3l-49.5,64.3
	L646.5,475.3z"/>
<ellipse transform="matrix(0.4797 -0.8775 0.8775 0.4797 80.8003 690.6188)" class="st6" cx="622.7" cy="277.2" rx="30.4" ry="30.4"/>
<path class="st7" d="M602.3,262.4c3.1,3.7,8.5,4.8,13.4,5.2c10,0.9,24.5-0.5,34.2-2.8c0.7,6.7-1.2,14,2.8,19.6
	c1.9-6.7,2.9-13.6,3.2-20.6c0.1-3,0.1-6.1-1.1-8.8c-1.2-2.7-3.9-5.1-6.9-5.1c2.3-1.7,4.9-2.9,7.7-3.3l-9.6-4.8l2.5-2.5l-17.5-1.1
	l5.1-3.2c-7.6-1-15.3-1.3-23-0.7c-3.6,0.3-7.3,0.8-10.2,2.8s-4.6,6.2-2.8,9.2c-4.6,0.7-8.4,3.8-10.2,8.1c-1.3,3.3-1.2,6.9-0.8,10.4
	c0.7,5.6,1.9,11,3.8,16.3"/>
<ellipse transform="matrix(3.076610e-02 -0.9995 0.9995 3.076610e-02 364.4229 721.3408)" class="st8" cx="554.2" cy="172.8" rx="60.3" ry="131.1"/>
<text transform="matrix(1 0 0 1 461.8896 146.8158)"><tspan x="0" y="0" class="st9 st10 st11">Please click the but</tspan><tspan x="170" y="0" class="st9 st10 st11">-</tspan><tspan x="-31.4" y="21.6" class="st9 st10 st11">tons to see my achivements </tspan><tspan x="-26.7" y="43.2" class="st9 st10 st11">in education or my work ex</tspan><tspan x="209.1" y="43.2" class="st9 st10 st11">-</tspan><tspan x="59.2" y="64.8" class="st9 st10 st11">perience </tspan></text>
<path class="st12" d="M525,241"/>
<ellipse class="st0" cx="550.7" cy="168.8" rx="135.6" ry="67"/>
</svg>
