<?xml version="1.0" encoding="utf-8"?>
<!-- Generator: Adobe Illustrator 25.1.0, SVG Export Plug-In . SVG Version: 6.00 Build 0)  -->
<svg version="1.1" id="f52ea72b-4bf4-4ca0-b256-883445bd7321"
	 xmlns="http://www.w3.org/2000/svg" xmlns:xlink="http://www.w3.org/1999/xlink" x="0px" y="0px" viewBox="0 0 649.4 727.8"
	 style="enable-background:new 0 0 649.4 727.8;" xml:space="preserve">
<style type="text/css">
	.st0{fill:#E6E6E6;}
	.st1{fill:#FFFFFF;}
	.st2{fill:#B1A296;}
	.st3{fill:#3F3D56;}
	.st4{fill:#FFB8B8;}
	.st5{fill:#2F2E41;}
	.st6{fill:#CCCCCC;}
</style>
<path class="st0" d="M362.9,172.9h-4V63.4c0-35-28.4-63.4-63.4-63.4H63.4C28.4,0,0,28.4,0,63.4v0v601c0,35,28.4,63.4,63.4,63.4
	c0,0,0,0,0,0h232.1c35,0,63.4-28.4,63.4-63.4V250.9h4L362.9,172.9z"/>
<path class="st1" d="M298,16.5h-30.3c4.7,11.5-0.8,24.6-12.3,29.3c-2.7,1.1-5.6,1.7-8.5,1.7H114c-12.4,0-22.5-10.1-22.5-22.5
	c0-2.9,0.6-5.8,1.7-8.5H64.8c-26.1,0-47.3,21.2-47.3,47.3v600.1c0,26.1,21.2,47.3,47.3,47.3l0,0H298c26.1,0,47.3-21.2,47.3-47.3l0,0
	l0,0V63.8C345.4,37.7,324.2,16.5,298,16.5L298,16.5z"/>
<path id="f3818c68-126c-4685-b4e0-2450731ccc2a" class="st0" d="M326.2,487.8H46.5c-2.9,0-5.2-2.3-5.2-5.2v-69.4
	c0-2.9,2.3-5.2,5.2-5.2h279.6c2.9,0,5.2,2.3,5.2,5.2v69.4C331.3,485.5,329,487.8,326.2,487.8z M46.5,410.2c-1.7,0-3.1,1.4-3.1,3.1
	v69.4c0,1.7,1.4,3.1,3.1,3.1h279.6c1.7,0,3.1-1.4,3.1-3.1v-69.4c0-1.7-1.4-3.1-3.1-3.1H46.5z"/>
<circle id="abdb74b7-e321-430b-89c2-b563f66442fc" class="st0" cx="82.8" cy="448" r="21.7"/>
<path id="addd02b1-b85b-481a-baea-1b0ba5ed9f4a" class="st0" d="M133,433.5c-2,0-3.6,1.7-3.6,3.7c0,2,1.6,3.5,3.6,3.6h170.9
	c2,0,3.7-1.6,3.7-3.6s-1.6-3.7-3.6-3.7l0,0c0,0-0.1,0-0.1,0L133,433.5z"/>
<path id="a42dc2a4-5fb2-4ea8-b2b3-ce81bc256782" class="st0" d="M133,455.2c-2,0-3.6,1.7-3.6,3.7c0,2,1.6,3.5,3.6,3.6h170.9
	c2,0,3.7-1.6,3.7-3.6s-1.6-3.7-3.6-3.7c0,0-0.1,0-0.1,0H133z"/>
<path id="b84687c4-e3b4-4975-8361-bf73c33c9ee5" class="st0" d="M326.2,603.8H46.5c-2.9,0-5.2-2.3-5.2-5.2v-69.4
	c0-2.9,2.3-5.2,5.2-5.2h279.6c2.9,0,5.2,2.3,5.2,5.2v69.4C331.3,601.5,329,603.8,326.2,603.8z M46.5,526.2c-1.7,0-3.1,1.4-3.1,3.1
	v69.4c0,1.7,1.4,3.1,3.1,3.1h279.6c1.7,0,3.1-1.4,3.1-3.1v-69.4c0-1.7-1.4-3.1-3.1-3.1H46.5z"/>
<circle id="fe3713e7-4e14-41f8-af1d-48b338e5371c" class="st0" cx="82.8" cy="563.9" r="21.7"/>
<path id="e34cf46a-1d6c-4c41-b5e1-331fa5bf8d4c" class="st0" d="M133,549.5c-2,0-3.6,1.7-3.6,3.7c0,2,1.6,3.5,3.6,3.6h170.9
	c2,0,3.7-1.6,3.7-3.6s-1.6-3.7-3.6-3.7l0,0c0,0-0.1,0-0.1,0H133z"/>
<path id="e105039f-b7a6-49c8-8f81-87505f1b0ae5" class="st0" d="M133,571.2c-2,0-3.6,1.7-3.6,3.7c0,2,1.6,3.5,3.6,3.6h170.9
	c2,0,3.7-1.6,3.7-3.6s-1.6-3.7-3.6-3.7c0,0-0.1,0-0.1,0H133z"/>
<path id="ad9187ec-89e0-4b9d-a4fb-dc654c09bafe" class="st0" d="M180.5,343.9c-54.3,0-98.4-44-98.4-98.3v-0.1c0-0.2,0-0.4,0-0.6
	c0.3-53.9,44.4-97.8,98.4-97.8c54.3,0,98.4,44.1,98.4,98.4C278.8,299.8,234.8,343.9,180.5,343.9L180.5,343.9L180.5,343.9z
	 M180.5,149.2c-52.9,0.1-95.9,42.8-96.3,95.7c0,0.2,0,0.4,0,0.6c0,53.2,43.1,96.3,96.3,96.3c53.2,0,96.3-43.1,96.3-96.3
	C276.8,192.3,233.7,149.2,180.5,149.2L180.5,149.2z"/>
<circle class="st1" cx="315.1" cy="422.8" r="40"/>
<path class="st2" d="M301.2,440.8c-0.1,0-0.1,0-0.2,0h-21.5c-5.7-0.1-10.3-4.8-10.2-10.6c0.1-5.6,4.6-10.1,10.2-10.2H301
	c0.1,0,0.2,0,0.3,0c5.7,0.1,10.3,4.8,10.3,10.5C311.5,436.3,306.9,440.8,301.2,440.8z"/>
<rect x="325.3" y="725.3" class="st3" width="324" height="2.2"/>
<path class="st4" d="M345.3,535.7c-0.3-0.4-0.5-0.8-0.6-1.3l-5.2-13.8c-1.3-3.4,0.5-7.1,3.8-8.4l115.2-43c3.4-1.3,7.1,0.5,8.4,3.8
	l5.2,13.8c1.3,3.4-0.5,7.1-3.8,8.4c0,0,0,0,0,0l-115.2,43C350.2,539.4,347,538.3,345.3,535.7L345.3,535.7z"/>
<path class="st5" d="M458.2,465.7l-46.9,18.7c-3.1,0.9-4.9,4.1-4.1,7.2l5.4,21.8c0.8,3.2,4.1,5.2,7.3,4.4c0.4-0.1,0.7-0.2,1.1-0.4
	l47-22.1c3.1-1.2,4.7-4.6,3.5-7.7l-5.6-18.3C464.8,466.1,461.3,464.5,458.2,465.7z"/>
<path class="st4" d="M544,601.3c-3,0.3-5.9-1.5-6.9-4.3L497,480.7c-1.2-3.4,0.6-7.1,4-8.3c0,0,0,0,0,0l14-4.8c3.4-1.2,7.1,0.6,8.3,4
	l40.1,116.3c1.2,3.4-0.6,7.1-4,8.3l-14,4.8C544.9,601.2,544.4,601.3,544,601.3z"/>
<path class="st5" d="M526.2,469.7l15.4,48c1.2,3-0.1,6.4-3,7.7l-20.3,9.7c-3,1.4-6.6,0.2-8-2.8c-0.2-0.4-0.3-0.7-0.4-1.1l-12.8-50.3
	c-1.1-3.1,0.6-6.5,3.7-7.6l17.7-7.3C521.7,464.9,525.1,466.5,526.2,469.7z"/>
<path class="st5" d="M479.6,726h-14.8c-3.6,0-6.5-2.9-6.5-6.5v-123c0-3.6,2.9-6.5,6.5-6.5h14.8c3.6,0,6.5,2.9,6.5,6.5v123
	C486.1,723.1,483.2,726,479.6,726z"/>
<path class="st5" d="M508.8,726H494c-3.6,0-6.5-2.9-6.5-6.5v-123c0-3.6,2.9-6.5,6.5-6.5h14.8c3.6,0,6.5,2.9,6.5,6.5v123
	C515.3,723.1,512.4,726,508.8,726z"/>
<path class="st6" d="M520.9,611h-67.1c-3.9,0-7-3.1-7-7V495c0-22.4,18.1-40.5,40.5-40.5s40.5,18.1,40.5,40.5V604
	C527.9,607.8,524.8,610.9,520.9,611z"/>
<path class="st5" d="M531,637.6h-34V445.4l0.6,0.2c19.7,5.4,33.3,23.3,33.4,43.7V637.6z"/>
<path class="st5" d="M475,637.6h-34V489.3c0-20.4,13.7-38.3,33.4-43.7l0.6-0.2V637.6z"/>
<circle class="st4" cx="486.9" cy="378.4" r="53.5"/>
<path class="st5" d="M547.4,366.1c0,0,3-83-36-56c0,0-22.5-75.5-77.5,37.5l-16,16c0,0,72-10,139,21L547.4,366.1z"/>
<path class="st5" d="M487.7,404.9c-3.3-0.1-7.4-0.2-10.6-2.5c-1.9-1.5-3.1-3.7-3.2-6.1c-0.1-1.7,0.6-3.4,1.9-4.5
	c1.7-1.4,4.1-1.7,6.7-1l-2.7-19.7l2-0.3l3.2,23.2l-1.7-0.8c-1.9-0.9-4.6-1.3-6.2,0.1c-0.8,0.7-1.2,1.8-1.2,2.9
	c0.1,1.8,1,3.4,2.4,4.5c2.5,1.8,5.7,2,9.5,2.1L487.7,404.9z"/>
<rect x="459.2" y="372.9" class="st5" width="10.8" height="2"/>
<rect x="493.2" y="372.9" class="st5" width="10.8" height="2"/>
<path class="st3" d="M367.6,540.8c-3,1.4-6.6,0.1-8-2.9l-34.5-74.4c-1.4-3-0.1-6.6,2.9-8s6.6-0.1,8,2.9l34.5,74.4
	C371.9,535.9,370.6,539.4,367.6,540.8z"/>
<path class="st2" d="M332.1,460.8c-2.2,0-4-1.8-4-4v-51h-50c-2.2,0-4-1.8-4-4c0-2.2,1.8-4,4-4h54c2.2,0,4,1.8,4,4v55
	C336.1,459,334.3,460.8,332.1,460.8z"/>
<path class="st3" d="M333.1,466.4c-24,11.2-52.6,0.7-63.7-23.3c-11.2-24-0.7-52.6,23.3-63.7c24-11.2,52.6-0.7,63.7,23.3
	C367.5,426.8,357.1,455.3,333.1,466.4z M297.7,390.3c-18,8.4-25.9,29.8-17.5,47.8c8.4,18,29.8,25.9,47.8,17.5
	c18-8.4,25.9-29.8,17.5-47.8C337.1,389.7,315.7,381.9,297.7,390.3L297.7,390.3z"/>
</svg>
